<?xml version="1.0" encoding="UTF-8"?>
<svg xmlns="http://www.w3.org/2000/svg" version="1.1" width="500" height="500" viewBox="0 0 500 500"><rect x="0" y="0" width="500" height="500" fill="#ffffff"/><g transform="scale(16.129)"><g transform="translate(1,1)"><g><g transform="translate(3.5,3.5)"><path fill-rule="evenodd" d="M-3.5 -3.5L3.5 -3.5L3.5 3.5L-3.5 3.5ZM-2.5 -2.5L-2.5 2.5L2.5 2.5L2.5 -2.5Z" fill="#000000"/><path fill-rule="evenodd" d="M-1.5 -1.5L1.5 -1.5L1.5 1.5L-1.5 1.5Z" fill="#000000"/></g></g><g><g transform="translate(25.5,3.5)"><g transform="rotate(90)"><path fill-rule="evenodd" d="M-3.5 -3.5L3.5 -3.5L3.5 3.5L-3.5 3.5ZM-2.5 -2.5L-2.5 2.5L2.5 2.5L2.5 -2.5Z" fill="#000000"/><path fill-rule="evenodd" d="M-1.5 -1.5L1.5 -1.5L1.5 1.5L-1.5 1.5Z" fill="#000000"/></g></g></g><g><g transform="translate(3.5,25.5)"><g transform="rotate(-90)"><path fill-rule="evenodd" d="M-3.5 -3.5L3.5 -3.5L3.5 3.5L-3.5 3.5ZM-2.5 -2.5L-2.5 2.5L2.5 2.5L2.5 -2.5Z" fill="#000000"/><path fill-rule="evenodd" d="M-1.5 -1.5L1.5 -1.5L1.5 1.5L-1.5 1.5Z" fill="#000000"/></g></g></g><path fill-rule="evenodd" d="M8 0L8 3L9 3L9 1L11 1L11 0ZM12 0L12 1L13 1L13 3L12 3L12 2L11 2L11 3L10 3L10 4L12 4L12 5L11 5L11 6L10 6L10 5L9 5L9 4L8 4L8 5L9 5L9 6L8 6L8 7L9 7L9 8L3 8L3 9L2 9L2 12L1 12L1 11L0 11L0 12L1 12L1 13L0 13L0 15L1 15L1 16L0 16L0 21L2 21L2 20L4 20L4 21L8 21L8 26L9 26L9 28L8 28L8 29L9 29L9 28L10 28L10 29L11 29L11 28L13 28L13 29L15 29L15 28L16 28L16 27L17 27L17 24L18 24L18 22L17 22L17 21L16 21L16 22L15 22L15 23L16 23L16 24L15 24L15 25L14 25L14 19L15 19L15 20L17 20L17 18L18 18L18 19L20 19L20 18L19 18L19 16L20 16L20 17L21 17L21 16L20 16L20 14L21 14L21 13L20 13L20 12L21 12L21 10L23 10L23 11L24 11L24 12L25 12L25 13L24 13L24 14L25 14L25 13L26 13L26 17L23 17L23 16L25 16L25 15L23 15L23 13L22 13L22 15L23 15L23 16L22 16L22 17L23 17L23 18L22 18L22 20L18 20L18 21L20 21L20 22L19 22L19 24L20 24L20 25L18 25L18 28L17 28L17 29L26 29L26 27L27 27L27 28L28 28L28 27L29 27L29 26L28 26L28 24L27 24L27 23L26 23L26 22L27 22L27 21L28 21L28 22L29 22L29 20L28 20L28 17L27 17L27 15L28 15L28 14L27 14L27 12L28 12L28 13L29 13L29 12L28 12L28 11L27 11L27 12L26 12L26 10L27 10L27 9L28 9L28 10L29 10L29 8L26 8L26 9L25 9L25 8L24 8L24 10L23 10L23 9L22 9L22 8L15 8L15 5L16 5L16 3L15 3L15 2L16 2L16 0ZM17 0L17 1L18 1L18 0ZM20 1L20 2L21 2L21 1ZM18 2L18 3L19 3L19 2ZM13 3L13 4L14 4L14 5L15 5L15 4L14 4L14 3ZM17 4L17 5L18 5L18 7L19 7L19 4ZM9 6L9 7L10 7L10 8L9 8L9 9L3 9L3 11L4 11L4 10L5 10L5 11L6 11L6 12L7 12L7 13L5 13L5 12L3 12L3 14L4 14L4 15L3 15L3 16L2 16L2 17L3 17L3 18L2 18L2 19L4 19L4 20L7 20L7 19L10 19L10 21L9 21L9 20L8 20L8 21L9 21L9 24L11 24L11 23L10 23L10 22L12 22L12 23L13 23L13 22L12 22L12 21L13 21L13 18L15 18L15 19L16 19L16 18L17 18L17 16L16 16L16 15L17 15L17 14L18 14L18 15L19 15L19 13L18 13L18 11L20 11L20 10L21 10L21 9L20 9L20 10L18 10L18 9L15 9L15 11L16 11L16 12L15 12L15 13L12 13L12 12L10 12L10 11L11 11L11 10L12 10L12 11L13 11L13 12L14 12L14 9L13 9L13 8L14 8L14 6L13 6L13 7L12 7L12 6L11 6L11 7L10 7L10 6ZM16 6L16 7L17 7L17 6ZM20 6L20 7L21 7L21 6ZM0 8L0 10L1 10L1 8ZM11 8L11 9L9 9L9 10L11 10L11 9L12 9L12 8ZM6 10L6 11L7 11L7 12L8 12L8 10ZM17 10L17 11L18 11L18 10ZM24 10L24 11L25 11L25 10ZM9 12L9 13L10 13L10 15L9 15L9 14L8 14L8 16L6 16L6 15L7 15L7 14L5 14L5 13L4 13L4 14L5 14L5 16L6 16L6 17L5 17L5 18L6 18L6 19L7 19L7 18L6 18L6 17L9 17L9 18L10 18L10 19L12 19L12 18L10 18L10 17L9 17L9 16L10 16L10 15L11 15L11 14L12 14L12 15L13 15L13 16L12 16L12 17L13 17L13 16L15 16L15 17L16 17L16 16L15 16L15 15L16 15L16 14L14 14L14 15L13 15L13 14L12 14L12 13L10 13L10 12ZM1 13L1 15L2 15L2 13ZM26 17L26 18L23 18L23 19L27 19L27 17ZM11 20L11 21L12 21L12 20ZM25 20L25 22L26 22L26 20ZM21 21L21 24L24 24L24 21ZM22 22L22 23L23 23L23 22ZM25 23L25 24L26 24L26 25L27 25L27 24L26 24L26 23ZM9 25L9 26L10 26L10 28L11 28L11 26L10 26L10 25ZM13 25L13 26L12 26L12 27L13 27L13 26L14 26L14 25ZM15 25L15 27L16 27L16 25ZM20 25L20 27L19 27L19 28L20 28L20 27L22 27L22 26L23 26L23 25L22 25L22 26L21 26L21 25ZM24 25L24 27L23 27L23 28L25 28L25 25Z" fill="#000000"/></g></g></svg>
